<?xml version="1.0" standalone="no"?>
<!DOCTYPE svg PUBLIC "-//W3C//DTD SVG 20010904//EN"
 "http://www.w3.org/TR/2001/REC-SVG-20010904/DTD/svg10.dtd">
<svg version="1.0" xmlns="http://www.w3.org/2000/svg"
 width="300.000000pt" height="143.000000pt" viewBox="0 0 300.000000 143.000000"
 preserveAspectRatio="xMidYMid meet">
<metadata>
Created by potrace 1.10, written by Peter Selinger 2001-2011
</metadata>
<g transform="translate(0.000000,143.000000) scale(0.100000,-0.100000)"
fill="#000000" stroke="none">
<path d="M0 715 l0 -715 1500 0 1500 0 0 715 0 715 -1500 0 -1500 0 0 -715z
m550 349 c47 -19 60 -38 60 -88 0 -39 -20 -56 -64 -56 -49 0 -67 43 -41 103 6
14 2 17 -19 17 -36 0 -47 -29 -44 -113 l3 -72 43 -3 c38 -3 43 -6 40 -25 -2
-18 -11 -23 -45 -25 l-43 -3 0 -155 c0 -86 4 -164 10 -174 5 -10 23 -21 40
-25 16 -4 30 -13 30 -21 0 -12 -23 -14 -137 -12 -138 3 -171 13 -113 35 l30
11 0 170 0 171 -27 3 c-20 2 -29 9 -31 25 -3 17 2 22 25 25 26 3 28 7 34 58 9
83 42 136 99 159 38 15 105 13 150 -5z m2087 -6 c50 -46 17 -132 -50 -132 -49
0 -77 27 -77 75 0 71 76 105 127 57z m-1025 -115 l3 -78 45 -5 c37 -4 45 -9
45 -25 0 -17 -8 -20 -47 -23 l-48 -3 0 -145 c0 -81 5 -154 10 -165 14 -25 46
-24 62 1 12 19 48 28 48 13 0 -20 -43 -75 -72 -93 -35 -21 -91 -26 -132 -10
-47 18 -56 53 -56 235 l0 165 -25 0 c-36 0 -31 20 16 65 22 22 58 64 81 93 56
73 67 69 70 -25z m-705 -96 c52 -27 58 -48 63 -217 5 -151 6 -155 27 -153 31
3 35 -21 8 -47 -16 -15 -41 -24 -74 -28 -43 -4 -53 -1 -75 21 l-25 25 -48 -25
c-62 -32 -140 -29 -178 7 -33 31 -35 104 -3 145 23 29 109 74 184 96 l44 13 0
55 c0 68 -18 91 -70 91 -48 0 -70 -23 -46 -48 23 -26 20 -68 -6 -86 -53 -37
-113 -5 -111 60 1 42 24 70 78 96 50 24 182 21 232 -5z m377 12 c27 -8 41 -8
49 0 6 6 17 11 24 11 11 0 13 -17 11 -72 -4 -85 -18 -97 -48 -39 -35 69 -115
94 -146 46 -24 -36 -5 -59 91 -109 116 -61 148 -122 111 -209 -32 -76 -108
-103 -216 -77 -38 9 -55 9 -63 1 -28 -28 -37 -12 -37 69 0 94 16 106 49 37 37
-75 132 -105 167 -52 26 40 7 66 -84 113 -102 54 -132 87 -132 150 0 112 94
167 224 131z m1026 -11 c70 -36 80 -65 80 -236 0 -142 0 -143 22 -140 37 5 34
-28 -4 -52 -47 -29 -113 -27 -141 4 l-21 23 -44 -23 c-103 -55 -212 -13 -212
81 0 67 51 110 180 156 l75 27 3 50 c4 62 -20 92 -70 92 -52 0 -64 -12 -49
-48 19 -47 11 -85 -21 -96 -86 -30 -132 74 -63 138 54 50 189 62 265 24z m350
-188 c0 -189 1 -200 20 -210 11 -6 20 -17 20 -25 0 -12 -21 -15 -120 -15 -94
0 -120 3 -120 13 0 8 11 19 25 25 l25 12 0 175 0 175 -25 12 c-14 6 -25 17
-25 25 0 10 23 13 100 13 l100 0 0 -200z m-731 -105 c75 -38 46 -155 -38 -155
-85 1 -120 98 -54 150 30 24 54 25 92 5z m789 -247 l-3 -43 -1237 -3 -1238 -2
0 45 0 45 1241 0 1240 0 -3 -42z"/>
<path d="M783 620 c-39 -23 -53 -48 -53 -94 0 -47 27 -63 70 -41 29 15 30 18
30 85 0 39 -3 70 -7 70 -5 0 -22 -9 -40 -20z"/>
<path d="M2196 621 c-56 -37 -74 -107 -35 -135 23 -16 43 -12 72 12 13 11 17
31 17 79 0 70 -6 75 -54 44z"/>
</g>
</svg>
