<?xml version="1.0" encoding="UTF-8"?>
<svg version="1.1" xmlns="http://www.w3.org/2000/svg" width="938" height="938">
<path d="M0 0 C309.54 0 619.08 0 938 0 C938 309.54 938 619.08 938 938 C628.46 938 318.92 938 0 938 C0 628.46 0 318.92 0 0 Z " fill="#FEFEFE" transform="translate(0,0)"/>
<path d="M0 0 C1.98 0 3.96 0 6 0 C6 0.66 6 1.32 6 2 C7.32 2 8.64 2 10 2 C10 2.66 10 3.32 10 4 C10.66 4 11.32 4 12 4 C12 4.66 12 5.32 12 6 C13.32 6 14.64 6 16 6 C16 6.66 16 7.32 16 8 C16.66 8 17.32 8 18 8 C18 8.66 18 9.32 18 10 C19.32 10 20.64 10 22 10 C22 10.66 22 11.32 22 12 C22.66 12 23.32 12 24 12 C24 12.66 24 13.32 24 14 C25.32 14 26.64 14 28 14 C28 14.66 28 15.32 28 16 C28.66 16 29.32 16 30 16 C30 16.66 30 17.32 30 18 C31.32 18 32.64 18 34 18 C34 18.66 34 19.32 34 20 C34.66 20 35.32 20 36 20 C36 20.66 36 21.32 36 22 C37.32 22 38.64 22 40 22 C40 22.66 40 23.32 40 24 C40.66 24 41.32 24 42 24 C42 24.66 42 25.32 42 26 C43.32 26 44.64 26 46 26 C46 26.66 46 27.32 46 28 C46.66 28 47.32 28 48 28 C48 28.66 48 29.32 48 30 C49.32 30 50.64 30 52 30 C52 30.66 52 31.32 52 32 C52.66 32 53.32 32 54 32 C54 32.66 54 33.32 54 34 C55.32 34 56.64 34 58 34 C58 34.66 58 35.32 58 36 C58.66 36 59.32 36 60 36 C60 36.66 60 37.32 60 38 C61.32 38 62.64 38 64 38 C64 38.66 64 39.32 64 40 C64.66 40 65.32 40 66 40 C66 40.66 66 41.32 66 42 C67.32 42 68.64 42 70 42 C70 42.66 70 43.32 70 44 C70.66 44 71.32 44 72 44 C72 44.66 72 45.32 72 46 C73.32 46 74.64 46 76 46 C76 46.66 76 47.32 76 48 C76.66 48 77.32 48 78 48 C78 48.66 78 49.32 78 50 C79.32 50 80.64 50 82 50 C82 50.66 82 51.32 82 52 C82.66 52 83.32 52 84 52 C84 52.66 84 53.32 84 54 C85.32 54 86.64 54 88 54 C88 54.66 88 55.32 88 56 C88.66 56 89.32 56 90 56 C90 56.66 90 57.32 90 58 C91.32 58 92.64 58 94 58 C94 58.66 94 59.32 94 60 C94.66 60 95.32 60 96 60 C96 60.66 96 61.32 96 62 C97.32 62 98.64 62 100 62 C100 62.66 100 63.32 100 64 C100.66 64 101.32 64 102 64 C102 64.66 102 65.32 102 66 C103.32 66 104.64 66 106 66 C106 66.66 106 67.32 106 68 C106.66 68 107.32 68 108 68 C108 68.66 108 69.32 108 70 C109.32 70 110.64 70 112 70 C112 70.66 112 71.32 112 72 C112.66 72 113.32 72 114 72 C114 72.66 114 73.32 114 74 C115.32 74 116.64 74 118 74 C118 74.66 118 75.32 118 76 C118.66 76 119.32 76 120 76 C120 76.66 120 77.32 120 78 C121.32 78 122.64 78 124 78 C124 78.66 124 79.32 124 80 C124.66 80 125.32 80 126 80 C126 80.66 126 81.32 126 82 C127.32 82 128.64 82 130 82 C130 82.66 130 83.32 130 84 C130.66 84 131.32 84 132 84 C132 84.66 132 85.32 132 86 C133.32 86 134.64 86 136 86 C136 86.66 136 87.32 136 88 C136.66 88 137.32 88 138 88 C138 88.66 138 89.32 138 90 C139.32 90 140.64 90 142 90 C142 90.66 142 91.32 142 92 C142.66 92 143.32 92 144 92 C144 92.66 144 93.32 144 94 C145.32 94 146.64 94 148 94 C148 94.66 148 95.32 148 96 C148.66 96 149.32 96 150 96 C150 96.66 150 97.32 150 98 C151.32 98 152.64 98 154 98 C154 98.66 154 99.32 154 100 C154.66 100 155.32 100 156 100 C156 100.66 156 101.32 156 102 C157.32 102 158.64 102 160 102 C160 102.66 160 103.32 160 104 C160.66 104 161.32 104 162 104 C162 105.32 162 106.64 162 108 C160.68 108 159.36 108 158 108 C158 108.66 158 109.32 158 110 C157.34 110 156.68 110 156 110 C156 110.66 156 111.32 156 112 C154.68 112 153.36 112 152 112 C152 112.66 152 113.32 152 114 C151.34 114 150.68 114 150 114 C150 114.66 150 115.32 150 116 C148.68 116 147.36 116 146 116 C146 116.66 146 117.32 146 118 C145.34 118 144.68 118 144 118 C144 118.66 144 119.32 144 120 C143.34 120 142.68 120 142 120 C142 120.66 142 121.32 142 122 C140.68 122 139.36 122 138 122 C138 122.66 138 123.32 138 124 C137.34 124 136.68 124 136 124 C136 124.66 136 125.32 136 126 C135.34 126 134.68 126 134 126 C134 126.66 134 127.32 134 128 C132.68 128 131.36 128 130 128 C130 128.66 130 129.32 130 130 C129.34 130 128.68 130 128 130 C128 130.66 128 131.32 128 132 C127.34 132 126.68 132 126 132 C126 132.66 126 133.32 126 134 C124.68 134 123.36 134 122 134 C122 134.66 122 135.32 122 136 C121.34 136 120.68 136 120 136 C120 136.66 120 137.32 120 138 C119.34 138 118.68 138 118 138 C118 138.66 118 139.32 118 140 C117.34 140 116.68 140 116 140 C116 140.66 116 141.32 116 142 C115.34 142 114.68 142 114 142 C114 142.66 114 143.32 114 144 C113.34 144 112.68 144 112 144 C112 144.66 112 145.32 112 146 C111.34 146 110.68 146 110 146 C110 146.66 110 147.32 110 148 C108.68 148 107.36 148 106 148 C106 148.66 106 149.32 106 150 C105.34 150 104.68 150 104 150 C104 150.66 104 151.32 104 152 C103.34 152 102.68 152 102 152 C102 152.66 102 153.32 102 154 C101.34 154 100.68 154 100 154 C100 154.66 100 155.32 100 156 C99.34 156 98.68 156 98 156 C98 156.66 98 157.32 98 158 C97.34 158 96.68 158 96 158 C96 158.66 96 159.32 96 160 C95.34 160 94.68 160 94 160 C94 160.66 94 161.32 94 162 C93.34 162 92.68 162 92 162 C92 163.32 92 164.64 92 166 C91.34 166 90.68 166 90 166 C90 166.66 90 167.32 90 168 C89.34 168 88.68 168 88 168 C88 168.66 88 169.32 88 170 C87.34 170 86.68 170 86 170 C86 170.66 86 171.32 86 172 C85.34 172 84.68 172 84 172 C84 172.66 84 173.32 84 174 C83.34 174 82.68 174 82 174 C82 174.66 82 175.32 82 176 C81.34 176 80.68 176 80 176 C80 177.32 80 178.64 80 180 C79.34 180 78.68 180 78 180 C78 180.66 78 181.32 78 182 C77.34 182 76.68 182 76 182 C76 183.32 76 184.64 76 186 C75.34 186 74.68 186 74 186 C74 186.66 74 187.32 74 188 C73.34 188 72.68 188 72 188 C72 189.32 72 190.64 72 192 C71.34 192 70.68 192 70 192 C70 193.32 70 194.64 70 196 C69.34 196 68.68 196 68 196 C68 196.66 68 197.32 68 198 C67.34 198 66.68 198 66 198 C66 199.98 66 201.96 66 204 C65.34 204 64.68 204 64 204 C64 205.32 64 206.64 64 208 C63.34 208 62.68 208 62 208 C62 209.32 62 210.64 62 212 C61.34 212 60.68 212 60 212 C60 213.98 60 215.96 60 218 C59.34 218 58.68 218 58 218 C58 220.64 58 223.28 58 226 C57.34 226 56.68 226 56 226 C56 229.96 56 233.92 56 238 C55.34 238 54.68 238 54 238 C54 247.24 54 256.48 54 266 C54.66 266 55.32 266 56 266 C56 267.98 56 269.96 56 272 C56.66 272 57.32 272 58 272 C58 275.3 58 278.6 58 282 C58.66 282 59.32 282 60 282 C60 283.98 60 285.96 60 288 C60.66 288 61.32 288 62 288 C62 289.98 62 291.96 62 294 C62.66 294 63.32 294 64 294 C64 295.32 64 296.64 64 298 C64.66 298 65.32 298 66 298 C66 299.98 66 301.96 66 304 C66.66 304 67.32 304 68 304 C68 305.32 68 306.64 68 308 C68.66 308 69.32 308 70 308 C70 308.66 70 309.32 70 310 C70.66 310 71.32 310 72 310 C72 311.32 72 312.64 72 314 C72.66 314 73.32 314 74 314 C74 315.32 74 316.64 74 318 C74.66 318 75.32 318 76 318 C76 318.66 76 319.32 76 320 C76.66 320 77.32 320 78 320 C78 321.32 78 322.64 78 324 C78.66 324 79.32 324 80 324 C80 325.32 80 326.64 80 328 C80.66 328 81.32 328 82 328 C82 329.32 82 330.64 82 332 C82.66 332 83.32 332 84 332 C84 332.66 84 333.32 84 334 C84.66 334 85.32 334 86 334 C86 335.32 86 336.64 86 338 C86.66 338 87.32 338 88 338 C88 338.66 88 339.32 88 340 C88.66 340 89.32 340 90 340 C90 341.32 90 342.64 90 344 C90.66 344 91.32 344 92 344 C92 344.66 92 345.32 92 346 C92.66 346 93.32 346 94 346 C94 347.32 94 348.64 94 350 C94.66 350 95.32 350 96 350 C96 350.66 96 351.32 96 352 C96.66 352 97.32 352 98 352 C98 353.32 98 354.64 98 356 C98.66 356 99.32 356 100 356 C100 356.66 100 357.32 100 358 C100.66 358 101.32 358 102 358 C102 359.32 102 360.64 102 362 C102.66 362 103.32 362 104 362 C104 362.66 104 363.32 104 364 C104.66 364 105.32 364 106 364 C106 365.32 106 366.64 106 368 C106.66 368 107.32 368 108 368 C108 368.66 108 369.32 108 370 C108.66 370 109.32 370 110 370 C110 371.32 110 372.64 110 374 C110.66 374 111.32 374 112 374 C112 374.66 112 375.32 112 376 C112.66 376 113.32 376 114 376 C114 377.32 114 378.64 114 380 C114.66 380 115.32 380 116 380 C116 381.32 116 382.64 116 384 C116.66 384 117.32 384 118 384 C118 384.66 118 385.32 118 386 C118.66 386 119.32 386 120 386 C120 387.32 120 388.64 120 390 C120.66 390 121.32 390 122 390 C122 390.66 122 391.32 122 392 C122.66 392 123.32 392 124 392 C124 393.32 124 394.64 124 396 C124.66 396 125.32 396 126 396 C126 397.32 126 398.64 126 400 C126.66 400 127.32 400 128 400 C128 400.66 128 401.32 128 402 C128.66 402 129.32 402 130 402 C130 403.32 130 404.64 130 406 C130.66 406 131.32 406 132 406 C132 407.32 132 408.64 132 410 C132.66 410 133.32 410 134 410 C134 411.98 134 413.96 134 416 C134.66 416 135.32 416 136 416 C136 417.32 136 418.64 136 420 C136.66 420 137.32 420 138 420 C138 421.98 138 423.96 138 426 C138.66 426 139.32 426 140 426 C140 429.3 140 432.6 140 436 C140.66 436 141.32 436 142 436 C142 451.84 142 467.68 142 484 C141.34 484 140.68 484 140 484 C140 487.3 140 490.6 140 494 C139.34 494 138.68 494 138 494 C138 497.96 138 501.92 138 506 C137.34 506 136.68 506 136 506 C136 507.32 136 508.64 136 510 C135.34 510 134.68 510 134 510 C134 511.98 134 513.96 134 516 C133.34 516 132.68 516 132 516 C132 517.98 132 519.96 132 522 C131.34 522 130.68 522 130 522 C130 523.32 130 524.64 130 526 C129.34 526 128.68 526 128 526 C128 527.32 128 528.64 128 530 C127.34 530 126.68 530 126 530 C126 531.32 126 532.64 126 534 C125.34 534 124.68 534 124 534 C124 535.32 124 536.64 124 538 C123.34 538 122.68 538 122 538 C122 539.32 122 540.64 122 542 C121.34 542 120.68 542 120 542 C120 542.66 120 543.32 120 544 C119.34 544 118.68 544 118 544 C118 545.32 118 546.64 118 548 C117.34 548 116.68 548 116 548 C116 548.66 116 549.32 116 550 C115.34 550 114.68 550 114 550 C114 551.32 114 552.64 114 554 C113.34 554 112.68 554 112 554 C112 554.66 112 555.32 112 556 C111.34 556 110.68 556 110 556 C110 556.66 110 557.32 110 558 C109.34 558 108.68 558 108 558 C108 559.32 108 560.64 108 562 C107.34 562 106.68 562 106 562 C106 562.66 106 563.32 106 564 C105.34 564 104.68 564 104 564 C104 564.66 104 565.32 104 566 C103.34 566 102.68 566 102 566 C102 566.66 102 567.32 102 568 C101.34 568 100.68 568 100 568 C100 568.66 100 569.32 100 570 C99.34 570 98.68 570 98 570 C98 570.66 98 571.32 98 572 C97.34 572 96.68 572 96 572 C96 572.66 96 573.32 96 574 C95.34 574 94.68 574 94 574 C94 574.66 94 575.32 94 576 C93.34 576 92.68 576 92 576 C92 576.66 92 577.32 92 578 C91.34 578 90.68 578 90 578 C90 578.66 90 579.32 90 580 C89.34 580 88.68 580 88 580 C88 580.66 88 581.32 88 582 C87.34 582 86.68 582 86 582 C86 582.66 86 583.32 86 584 C85.34 584 84.68 584 84 584 C84 584.66 84 585.32 84 586 C83.34 586 82.68 586 82 586 C82 586.66 82 587.32 82 588 C81.34 588 80.68 588 80 588 C80 588.66 80 589.32 80 590 C78.68 590 77.36 590 76 590 C76 590.66 76 591.32 76 592 C75.34 592 74.68 592 74 592 C74 592.66 74 593.32 74 594 C73.34 594 72.68 594 72 594 C72 594.66 72 595.32 72 596 C71.34 596 70.68 596 70 596 C70 596.66 70 597.32 70 598 C69.34 598 68.68 598 68 598 C68 598.66 68 599.32 68 600 C66.68 600 65.36 600 64 600 C64 600.66 64 601.32 64 602 C63.34 602 62.68 602 62 602 C62 602.66 62 603.32 62 604 C61.34 604 60.68 604 60 604 C60 604.66 60 605.32 60 606 C58.68 606 57.36 606 56 606 C56 606.66 56 607.32 56 608 C55.34 608 54.68 608 54 608 C54 608.66 54 609.32 54 610 C52.68 610 51.36 610 50 610 C50 610.66 50 611.32 50 612 C49.34 612 48.68 612 48 612 C48 612.66 48 613.32 48 614 C46.68 614 45.36 614 44 614 C44 614.66 44 615.32 44 616 C43.34 616 42.68 616 42 616 C42 616.66 42 617.32 42 618 C40.68 618 39.36 618 38 618 C38 618.66 38 619.32 38 620 C36.68 620 35.36 620 34 620 C34 620.66 34 621.32 34 622 C33.34 622 32.68 622 32 622 C32 622.66 32 623.32 32 624 C30.68 624 29.36 624 28 624 C28 624.66 28 625.32 28 626 C26.68 626 25.36 626 24 626 C24 626.66 24 627.32 24 628 C22.68 628 21.36 628 20 628 C20 628.66 20 629.32 20 630 C18.68 630 17.36 630 16 630 C16 630.66 16 631.32 16 632 C15.34 632 14.68 632 14 632 C14 632.66 14 633.32 14 634 C12.68 634 11.36 634 10 634 C10 634.66 10 635.32 10 636 C8.68 636 7.36 636 6 636 C6 636.66 6 637.32 6 638 C4.68 638 3.36 638 2 638 C2 638.66 2 639.32 2 640 C0.02 640 -1.96 640 -4 640 C-4 640.66 -4 641.32 -4 642 C-5.32 642 -6.64 642 -8 642 C-8 642.66 -8 643.32 -8 644 C-9.32 644 -10.64 644 -12 644 C-12 644.66 -12 645.32 -12 646 C-13.32 646 -14.64 646 -16 646 C-16 646.66 -16 647.32 -16 648 C-17.98 648 -19.96 648 -22 648 C-22 648.66 -22 649.32 -22 650 C-23.32 650 -24.64 650 -26 650 C-26 650.66 -26 651.32 -26 652 C-27.32 652 -28.64 652 -30 652 C-30 652.66 -30 653.32 -30 654 C-31.32 654 -32.64 654 -34 654 C-34 652.68 -34 651.36 -34 650 C-34.66 650 -35.32 650 -36 650 C-36 649.34 -36 648.68 -36 648 C-36.66 648 -37.32 648 -38 648 C-38 647.34 -38 646.68 -38 646 C-38.66 646 -39.32 646 -40 646 C-40 644.68 -40 643.36 -40 642 C-40.66 642 -41.32 642 -42 642 C-42 641.34 -42 640.68 -42 640 C-42.66 640 -43.32 640 -44 640 C-44 639.34 -44 638.68 -44 638 C-44.66 638 -45.32 638 -46 638 C-46 636.68 -46 635.36 -46 634 C-46.66 634 -47.32 634 -48 634 C-48 633.34 -48 632.68 -48 632 C-48.66 632 -49.32 632 -50 632 C-50 631.34 -50 630.68 -50 630 C-50.66 630 -51.32 630 -52 630 C-52 628.68 -52 627.36 -52 626 C-52.66 626 -53.32 626 -54 626 C-54 625.34 -54 624.68 -54 624 C-54.66 624 -55.32 624 -56 624 C-56 623.34 -56 622.68 -56 622 C-56.66 622 -57.32 622 -58 622 C-58 620.68 -58 619.36 -58 618 C-58.66 618 -59.32 618 -60 618 C-60 617.34 -60 616.68 -60 616 C-60.66 616 -61.32 616 -62 616 C-62 615.34 -62 614.68 -62 614 C-62.66 614 -63.32 614 -64 614 C-64 612.68 -64 611.36 -64 610 C-64.66 610 -65.32 610 -66 610 C-66 609.34 -66 608.68 -66 608 C-66.66 608 -67.32 608 -68 608 C-68 606.68 -68 605.36 -68 604 C-68.66 604 -69.32 604 -70 604 C-70 603.34 -70 602.68 -70 602 C-70.66 602 -71.32 602 -72 602 C-72 601.34 -72 600.68 -72 600 C-72.66 600 -73.32 600 -74 600 C-74 598.68 -74 597.36 -74 596 C-73.34 596 -72.68 596 -72 596 C-72 595.34 -72 594.68 -72 594 C-70.68 594 -69.36 594 -68 594 C-68 593.34 -68 592.68 -68 592 C-67.34 592 -66.68 592 -66 592 C-66 591.34 -66 590.68 -66 590 C-64.68 590 -63.36 590 -62 590 C-62 589.34 -62 588.68 -62 588 C-60.68 588 -59.36 588 -58 588 C-58 587.34 -58 586.68 -58 586 C-57.34 586 -56.68 586 -56 586 C-56 585.34 -56 584.68 -56 584 C-54.68 584 -53.36 584 -52 584 C-52 583.34 -52 582.68 -52 582 C-51.34 582 -50.68 582 -50 582 C-50 581.34 -50 580.68 -50 580 C-48.68 580 -47.36 580 -46 580 C-46 579.34 -46 578.68 -46 578 C-45.34 578 -44.68 578 -44 578 C-44 577.34 -44 576.68 -44 576 C-42.68 576 -41.36 576 -40 576 C-40 575.34 -40 574.68 -40 574 C-39.34 574 -38.68 574 -38 574 C-38 573.34 -38 572.68 -38 572 C-37.34 572 -36.68 572 -36 572 C-36 571.34 -36 570.68 -36 570 C-35.34 570 -34.68 570 -34 570 C-34 569.34 -34 568.68 -34 568 C-32.68 568 -31.36 568 -30 568 C-30 567.34 -30 566.68 -30 566 C-29.34 566 -28.68 566 -28 566 C-28 565.34 -28 564.68 -28 564 C-27.34 564 -26.68 564 -26 564 C-26 563.34 -26 562.68 -26 562 C-25.34 562 -24.68 562 -24 562 C-24 561.34 -24 560.68 -24 560 C-23.34 560 -22.68 560 -22 560 C-22 559.34 -22 558.68 -22 558 C-21.34 558 -20.68 558 -20 558 C-20 557.34 -20 556.68 -20 556 C-19.34 556 -18.68 556 -18 556 C-18 555.34 -18 554.68 -18 554 C-17.34 554 -16.68 554 -16 554 C-16 552.68 -16 551.36 -16 550 C-15.34 550 -14.68 550 -14 550 C-14 549.34 -14 548.68 -14 548 C-13.34 548 -12.68 548 -12 548 C-12 546.68 -12 545.36 -12 544 C-11.34 544 -10.68 544 -10 544 C-10 543.34 -10 542.68 -10 542 C-9.34 542 -8.68 542 -8 542 C-8 540.68 -8 539.36 -8 538 C-7.34 538 -6.68 538 -6 538 C-6 536.02 -6 534.04 -6 532 C-5.34 532 -4.68 532 -4 532 C-4 530.68 -4 529.36 -4 528 C-3.34 528 -2.68 528 -2 528 C-2 525.36 -2 522.72 -2 520 C-1.34 520 -0.68 520 0 520 C0 518.68 0 517.36 0 516 C0.66 516 1.32 516 2 516 C2 507.42 2 498.84 2 490 C1.34 490 0.68 490 0 490 C0 486.7 0 483.4 0 480 C-0.66 480 -1.32 480 -2 480 C-2 478.02 -2 476.04 -2 474 C-2.66 474 -3.32 474 -4 474 C-4 472.02 -4 470.04 -4 468 C-4.66 468 -5.32 468 -6 468 C-6 466.68 -6 465.36 -6 464 C-6.66 464 -7.32 464 -8 464 C-8 462.68 -8 461.36 -8 460 C-8.66 460 -9.32 460 -10 460 C-10 458.68 -10 457.36 -10 456 C-10.66 456 -11.32 456 -12 456 C-12 454.68 -12 453.36 -12 452 C-12.66 452 -13.32 452 -14 452 C-14 450.68 -14 449.36 -14 448 C-14.66 448 -15.32 448 -16 448 C-16 447.34 -16 446.68 -16 446 C-16.66 446 -17.32 446 -18 446 C-18 444.68 -18 443.36 -18 442 C-18.66 442 -19.32 442 -20 442 C-20 441.34 -20 440.68 -20 440 C-20.66 440 -21.32 440 -22 440 C-22 438.68 -22 437.36 -22 436 C-22.66 436 -23.32 436 -24 436 C-24 435.34 -24 434.68 -24 434 C-24.66 434 -25.32 434 -26 434 C-26 432.68 -26 431.36 -26 430 C-26.66 430 -27.32 430 -28 430 C-28 429.34 -28 428.68 -28 428 C-28.66 428 -29.32 428 -30 428 C-30 426.68 -30 425.36 -30 424 C-30.66 424 -31.32 424 -32 424 C-32 423.34 -32 422.68 -32 422 C-32.66 422 -33.32 422 -34 422 C-34 421.34 -34 420.68 -34 420 C-34.66 420 -35.32 420 -36 420 C-36 418.68 -36 417.36 -36 416 C-36.66 416 -37.32 416 -38 416 C-38 415.34 -38 414.68 -38 414 C-38.66 414 -39.32 414 -40 414 C-40 413.34 -40 412.68 -40 412 C-40.66 412 -41.32 412 -42 412 C-42 411.34 -42 410.68 -42 410 C-42.66 410 -43.32 410 -44 410 C-44 408.68 -44 407.36 -44 406 C-44.66 406 -45.32 406 -46 406 C-46 405.34 -46 404.68 -46 404 C-46.66 404 -47.32 404 -48 404 C-48 403.34 -48 402.68 -48 402 C-48.66 402 -49.32 402 -50 402 C-50 400.68 -50 399.36 -50 398 C-50.66 398 -51.32 398 -52 398 C-52 397.34 -52 396.68 -52 396 C-52.66 396 -53.32 396 -54 396 C-54 395.34 -54 394.68 -54 394 C-54.66 394 -55.32 394 -56 394 C-56 393.34 -56 392.68 -56 392 C-56.66 392 -57.32 392 -58 392 C-58 390.68 -58 389.36 -58 388 C-58.66 388 -59.32 388 -60 388 C-60 387.34 -60 386.68 -60 386 C-60.66 386 -61.32 386 -62 386 C-62 385.34 -62 384.68 -62 384 C-62.66 384 -63.32 384 -64 384 C-64 383.34 -64 382.68 -64 382 C-64.66 382 -65.32 382 -66 382 C-66 380.68 -66 379.36 -66 378 C-66.66 378 -67.32 378 -68 378 C-68 377.34 -68 376.68 -68 376 C-68.66 376 -69.32 376 -70 376 C-70 375.34 -70 374.68 -70 374 C-70.66 374 -71.32 374 -72 374 C-72 372.68 -72 371.36 -72 370 C-72.66 370 -73.32 370 -74 370 C-74 369.34 -74 368.68 -74 368 C-74.66 368 -75.32 368 -76 368 C-76 367.34 -76 366.68 -76 366 C-76.66 366 -77.32 366 -78 366 C-78 364.68 -78 363.36 -78 362 C-78.66 362 -79.32 362 -80 362 C-80 361.34 -80 360.68 -80 360 C-80.66 360 -81.32 360 -82 360 C-82 359.34 -82 358.68 -82 358 C-82.66 358 -83.32 358 -84 358 C-84 356.68 -84 355.36 -84 354 C-84.66 354 -85.32 354 -86 354 C-86 353.34 -86 352.68 -86 352 C-86.66 352 -87.32 352 -88 352 C-88 350.68 -88 349.36 -88 348 C-88.66 348 -89.32 348 -90 348 C-90 347.34 -90 346.68 -90 346 C-90.66 346 -91.32 346 -92 346 C-92 344.68 -92 343.36 -92 342 C-92.66 342 -93.32 342 -94 342 C-94 341.34 -94 340.68 -94 340 C-94.66 340 -95.32 340 -96 340 C-96 338.68 -96 337.36 -96 336 C-96.66 336 -97.32 336 -98 336 C-98 334.68 -98 333.36 -98 332 C-98.66 332 -99.32 332 -100 332 C-100 331.34 -100 330.68 -100 330 C-100.66 330 -101.32 330 -102 330 C-102 328.68 -102 327.36 -102 326 C-102.66 326 -103.32 326 -104 326 C-104 324.68 -104 323.36 -104 322 C-104.66 322 -105.32 322 -106 322 C-106 320.68 -106 319.36 -106 318 C-106.66 318 -107.32 318 -108 318 C-108 316.68 -108 315.36 -108 314 C-108.66 314 -109.32 314 -110 314 C-110 312.68 -110 311.36 -110 310 C-110.66 310 -111.32 310 -112 310 C-112 308.68 -112 307.36 -112 306 C-112.66 306 -113.32 306 -114 306 C-114 304.02 -114 302.04 -114 300 C-114.66 300 -115.32 300 -116 300 C-116 298.68 -116 297.36 -116 296 C-116.66 296 -117.32 296 -118 296 C-118 294.02 -118 292.04 -118 290 C-118.66 290 -119.32 290 -120 290 C-120 288.02 -120 286.04 -120 284 C-120.66 284 -121.32 284 -122 284 C-122 281.36 -122 278.72 -122 276 C-122.66 276 -123.32 276 -124 276 C-124 273.36 -124 270.72 -124 268 C-124.66 268 -125.32 268 -126 268 C-126 264.7 -126 261.4 -126 258 C-126.66 258 -127.32 258 -128 258 C-128 254.7 -128 251.4 -128 248 C-128.66 248 -129.32 248 -130 248 C-130 232.82 -130 217.64 -130 202 C-129.34 202 -128.68 202 -128 202 C-128 198.04 -128 194.08 -128 190 C-127.34 190 -126.68 190 -126 190 C-126 186.04 -126 182.08 -126 178 C-125.34 178 -124.68 178 -124 178 C-124 174.7 -124 171.4 -124 168 C-123.34 168 -122.68 168 -122 168 C-122 165.36 -122 162.72 -122 160 C-121.34 160 -120.68 160 -120 160 C-120 158.02 -120 156.04 -120 154 C-119.34 154 -118.68 154 -118 154 C-118 152.02 -118 150.04 -118 148 C-117.34 148 -116.68 148 -116 148 C-116 146.02 -116 144.04 -116 142 C-115.34 142 -114.68 142 -114 142 C-114 140.68 -114 139.36 -114 138 C-113.34 138 -112.68 138 -112 138 C-112 136.02 -112 134.04 -112 132 C-111.34 132 -110.68 132 -110 132 C-110 131.34 -110 130.68 -110 130 C-109.34 130 -108.68 130 -108 130 C-108 128.02 -108 126.04 -108 124 C-107.34 124 -106.68 124 -106 124 C-106 123.34 -106 122.68 -106 122 C-105.34 122 -104.68 122 -104 122 C-104 120.68 -104 119.36 -104 118 C-103.34 118 -102.68 118 -102 118 C-102 116.68 -102 115.36 -102 114 C-101.34 114 -100.68 114 -100 114 C-100 112.68 -100 111.36 -100 110 C-99.34 110 -98.68 110 -98 110 C-98 109.34 -98 108.68 -98 108 C-97.34 108 -96.68 108 -96 108 C-96 106.68 -96 105.36 -96 104 C-95.34 104 -94.68 104 -94 104 C-94 102.68 -94 101.36 -94 100 C-93.34 100 -92.68 100 -92 100 C-92 99.34 -92 98.68 -92 98 C-91.34 98 -90.68 98 -90 98 C-90 97.34 -90 96.68 -90 96 C-89.34 96 -88.68 96 -88 96 C-88 94.68 -88 93.36 -88 92 C-87.34 92 -86.68 92 -86 92 C-86 91.34 -86 90.68 -86 90 C-85.34 90 -84.68 90 -84 90 C-84 88.68 -84 87.36 -84 86 C-83.34 86 -82.68 86 -82 86 C-82 85.34 -82 84.68 -82 84 C-81.34 84 -80.68 84 -80 84 C-80 83.34 -80 82.68 -80 82 C-79.34 82 -78.68 82 -78 82 C-78 80.68 -78 79.36 -78 78 C-77.34 78 -76.68 78 -76 78 C-76 77.34 -76 76.68 -76 76 C-75.34 76 -74.68 76 -74 76 C-74 75.34 -74 74.68 -74 74 C-73.34 74 -72.68 74 -72 74 C-72 73.34 -72 72.68 -72 72 C-71.34 72 -70.68 72 -70 72 C-70 70.68 -70 69.36 -70 68 C-69.34 68 -68.68 68 -68 68 C-68 67.34 -68 66.68 -68 66 C-67.34 66 -66.68 66 -66 66 C-66 65.34 -66 64.68 -66 64 C-65.34 64 -64.68 64 -64 64 C-64 63.34 -64 62.68 -64 62 C-63.34 62 -62.68 62 -62 62 C-62 61.34 -62 60.68 -62 60 C-61.34 60 -60.68 60 -60 60 C-60 59.34 -60 58.68 -60 58 C-59.34 58 -58.68 58 -58 58 C-58 56.68 -58 55.36 -58 54 C-57.34 54 -56.68 54 -56 54 C-56 53.34 -56 52.68 -56 52 C-55.34 52 -54.68 52 -54 52 C-54 51.34 -54 50.68 -54 50 C-53.34 50 -52.68 50 -52 50 C-52 49.34 -52 48.68 -52 48 C-51.34 48 -50.68 48 -50 48 C-50 47.34 -50 46.68 -50 46 C-49.34 46 -48.68 46 -48 46 C-48 45.34 -48 44.68 -48 44 C-47.34 44 -46.68 44 -46 44 C-46 43.34 -46 42.68 -46 42 C-45.34 42 -44.68 42 -44 42 C-44 41.34 -44 40.68 -44 40 C-43.34 40 -42.68 40 -42 40 C-42 39.34 -42 38.68 -42 38 C-41.34 38 -40.68 38 -40 38 C-40 37.34 -40 36.68 -40 36 C-39.34 36 -38.68 36 -38 36 C-38 35.34 -38 34.68 -38 34 C-37.34 34 -36.68 34 -36 34 C-36 33.34 -36 32.68 -36 32 C-35.34 32 -34.68 32 -34 32 C-34 31.34 -34 30.68 -34 30 C-33.34 30 -32.68 30 -32 30 C-32 29.34 -32 28.68 -32 28 C-31.34 28 -30.68 28 -30 28 C-30 27.34 -30 26.68 -30 26 C-29.34 26 -28.68 26 -28 26 C-28 25.34 -28 24.68 -28 24 C-27.34 24 -26.68 24 -26 24 C-26 23.34 -26 22.68 -26 22 C-25.34 22 -24.68 22 -24 22 C-24 21.34 -24 20.68 -24 20 C-23.34 20 -22.68 20 -22 20 C-22 19.34 -22 18.68 -22 18 C-21.34 18 -20.68 18 -20 18 C-20 17.34 -20 16.68 -20 16 C-18.68 16 -17.36 16 -16 16 C-16 15.34 -16 14.68 -16 14 C-15.34 14 -14.68 14 -14 14 C-14 13.34 -14 12.68 -14 12 C-13.34 12 -12.68 12 -12 12 C-12 11.34 -12 10.68 -12 10 C-11.34 10 -10.68 10 -10 10 C-10 9.34 -10 8.68 -10 8 C-9.34 8 -8.68 8 -8 8 C-8 7.34 -8 6.68 -8 6 C-7.34 6 -6.68 6 -6 6 C-6 5.34 -6 4.68 -6 4 C-4.68 4 -3.36 4 -2 4 C-2 3.34 -2 2.68 -2 2 C-1.34 2 -0.68 2 0 2 C0 1.34 0 0.68 0 0 Z " fill="#092152" transform="translate(453,135)"/>
</svg>
